<?xml version="1.0" encoding="UTF-8" standalone="no"?>
<!-- Generator: Adobe Illustrator 12.0.1, SVG Export Plug-In . SVG Version: 6.00 Build 51448)  -->

<svg
   xmlns:dc="http://purl.org/dc/elements/1.1/"
   xmlns:cc="http://creativecommons.org/ns#"
   xmlns:rdf="http://www.w3.org/1999/02/22-rdf-syntax-ns#"
   xmlns:svg="http://www.w3.org/2000/svg"
   xmlns="http://www.w3.org/2000/svg"
   xmlns:sodipodi="http://sodipodi.sourceforge.net/DTD/sodipodi-0.dtd"
   xmlns:inkscape="http://www.inkscape.org/namespaces/inkscape"
   version="1.0"
   id="Layer_1"
   width="120"
   height="50"
   viewBox="0 0 120 50"
   overflow="visible"
   enable-background="new 0 0 504.09 215.994"
   xml:space="preserve"
   inkscape:version="0.48.4 r9939"
   sodipodi:docname="django.svg"
   style="overflow:visible"
   inkscape:export-filename="/home/huntingbears/desarrollo/canaimagnulinux.github.com/tribus/img/django.png"
   inkscape:export-xdpi="90"
   inkscape:export-ydpi="90"><metadata
     id="metadata25"><rdf:RDF><cc:Work
         rdf:about=""><dc:format>image/svg+xml</dc:format><dc:type
           rdf:resource="http://purl.org/dc/dcmitype/StillImage" /><dc:title></dc:title></cc:Work></rdf:RDF></metadata><defs
     id="defs23" /><sodipodi:namedview
     pagecolor="#ffffff"
     bordercolor="#666666"
     borderopacity="1"
     objecttolerance="10"
     gridtolerance="10"
     guidetolerance="10"
     inkscape:pageopacity="0"
     inkscape:pageshadow="2"
     inkscape:window-width="1598"
     inkscape:window-height="875"
     id="namedview21"
     showgrid="false"
     borderlayer="true"
     inkscape:zoom="1.0926229"
     inkscape:cx="-21.608423"
     inkscape:cy="107.997"
     inkscape:window-x="0"
     inkscape:window-y="0"
     inkscape:window-maximized="1"
     inkscape:current-layer="Layer_1" /><g
     id="g3002"
     transform="matrix(0.23805273,0,0,0.23148791,-3.3284999e-7,1.8373001e-7)"><path
       id="path3"
       d="m 504.09,187.994 c 0,15.464 -12.536,28 -28,28 H 28 c -15.464,0 -28,-12.536 -28,-28 V 28 C 0,12.536 12.536,0 28,0 h 448.09 c 15.464,0 28,12.536 28,28 v 159.994 z"
       inkscape:connector-curvature="0"
       style="fill:#092e20" /><g
       id="g5"><g
         id="g7"><path
           id="path9"
           d="m 86.945,33.919 h 23.872 v 110.496 c -12.246,2.325 -21.237,3.255 -31.002,3.255 -29.142,0 -44.333,-13.174 -44.333,-38.443 0,-24.336 16.122,-40.147 41.078,-40.147 3.875,0 6.82,0.311 10.386,1.239 v -36.4 z m 0,55.62 C 84.155,88.61 81.83,88.3 78.885,88.3 c -12.091,0 -19.067,7.441 -19.067,20.46 0,12.713 6.666,19.688 18.912,19.688 2.634,0 4.805,-0.155 8.215,-0.618 V 89.539 z"
           inkscape:connector-curvature="0"
           style="fill:#ffffff" /><path
           id="path11"
           d="m 148.793,70.783 v 55.341 c 0,19.065 -1.395,28.21 -5.58,36.117 -3.876,7.596 -8.992,12.399 -19.532,17.67 L 101.514,169.37 c 10.541,-4.96 15.656,-9.297 18.911,-15.966 3.411,-6.819 4.497,-14.727 4.497,-35.498 V 70.783 h 23.871 z M 124.922,34.046 h 23.871 V 58.539 H 124.922 V 34.046 z"
           inkscape:connector-curvature="0"
           style="fill:#ffffff" /><path
           id="path13"
           d="m 163.212,76.209 c 10.542,-4.961 20.617,-7.13 31.623,-7.13 12.246,0 20.306,3.255 23.872,9.611 2.014,3.564 2.634,8.214 2.634,18.137 v 48.517 c -10.697,1.552 -24.182,2.636 -34.102,2.636 -19.996,0 -28.988,-6.977 -28.988,-22.476 0,-16.744 11.936,-24.493 41.234,-26.975 v -5.271 c 0,-4.339 -2.17,-5.888 -8.216,-5.888 -8.835,0 -18.756,2.479 -28.058,7.285 V 76.209 z m 37.358,37.978 c -15.812,1.552 -20.927,4.031 -20.927,10.231 0,4.65 2.946,6.821 9.456,6.821 3.566,0 6.82,-0.311 11.471,-1.084 v -15.968 z"
           inkscape:connector-curvature="0"
           style="fill:#ffffff" /><path
           id="path15"
           d="m 232.968,74.505 c 14.105,-3.722 25.731,-5.426 37.512,-5.426 12.246,0 21.082,2.788 26.354,8.216 4.96,5.113 6.509,10.693 6.509,22.632 v 46.813 h -23.871 v -45.884 c 0,-9.145 -3.1,-12.557 -11.625,-12.557 -3.255,0 -6.2,0.311 -11.007,1.706 v 56.734 H 232.969 V 74.505 z"
           inkscape:connector-curvature="0"
           style="fill:#ffffff" /><path
           id="path17"
           d="m 312.623,159.761 c 8.372,4.339 16.742,6.354 25.577,6.354 15.655,0 22.321,-6.354 22.321,-21.546 0,-0.154 0,-0.31 0,-0.467 -4.65,2.326 -9.301,3.257 -15.5,3.257 -20.927,0 -34.26,-13.797 -34.26,-35.652 0,-27.128 19.688,-42.473 54.564,-42.473 10.232,0 19.688,1.084 31.159,3.407 l -8.174,17.222 c -6.356,-1.241 -0.509,-0.167 -5.312,-0.632 v 2.48 l 0.309,10.074 0.154,13.022 c 0.155,3.253 0.155,6.51 0.311,9.764 0,2.945 0,4.342 0,6.512 0,20.462 -1.705,30.073 -6.82,37.977 -7.441,11.627 -20.307,17.362 -38.598,17.362 -9.301,0 -17.36,-1.396 -25.732,-4.651 v -22.01 z m 47.434,-71.306 c -0.31,0 -0.619,0 -0.774,0 h -1.706 c -4.649,-0.155 -10.074,1.084 -13.796,3.409 -5.734,3.257 -8.681,9.146 -8.681,17.518 0,11.937 5.892,18.756 16.432,18.756 3.255,0 5.891,-0.62 8.99,-1.55 v -1.705 -6.51 c 0,-2.79 -0.154,-5.892 -0.154,-9.146 l -0.154,-11.006 -0.156,-7.905 v -1.861 z"
           inkscape:connector-curvature="0"
           style="fill:#ffffff" /><path
           id="path19"
           d="m 433.543,68.77 c 23.871,0 38.443,15.037 38.443,39.371 0,24.957 -15.19,40.613 -39.373,40.613 -23.873,0 -38.599,-15.036 -38.599,-39.216 10e-4,-25.114 15.193,-40.768 39.529,-40.768 z m -0.467,60.763 c 9.147,0 14.573,-7.596 14.573,-20.773 0,-13.019 -5.271,-20.771 -14.415,-20.771 -9.457,0 -14.884,7.598 -14.884,20.771 10e-4,13.178 5.427,20.773 14.726,20.773 z"
           inkscape:connector-curvature="0"
           style="fill:#ffffff" /></g></g></g></svg>