<?xml version="1.0" encoding="UTF-8" standalone="no"?>
<!-- Generator: Adobe Illustrator 15.0.0, SVG Export Plug-In . SVG Version: 6.00 Build 0)  -->

<svg
   xmlns:dc="http://purl.org/dc/elements/1.1/"
   xmlns:cc="http://creativecommons.org/ns#"
   xmlns:rdf="http://www.w3.org/1999/02/22-rdf-syntax-ns#"
   xmlns:svg="http://www.w3.org/2000/svg"
   xmlns="http://www.w3.org/2000/svg"
   xmlns:sodipodi="http://sodipodi.sourceforge.net/DTD/sodipodi-0.dtd"
   xmlns:inkscape="http://www.inkscape.org/namespaces/inkscape"
   version="1.1"
   id="Ebene_1"
   x="0px"
   y="0px"
   width="60"
   height="50"
   viewBox="0 0 60 50"
   enable-background="new 0 0 214.328 223"
   xml:space="preserve"
   inkscape:version="0.48.4 r9939"
   sodipodi:docname="github.svg"
   inkscape:export-filename="/home/huntingbears/desarrollo/canaimagnulinux.github.com/tribus/img/github.png"
   inkscape:export-xdpi="90"
   inkscape:export-ydpi="90"><metadata
     id="metadata3057"><rdf:RDF><cc:Work
         rdf:about=""><dc:format>image/svg+xml</dc:format><dc:type
           rdf:resource="http://purl.org/dc/dcmitype/StillImage" /><dc:title /></cc:Work></rdf:RDF></metadata><defs
     id="defs3055" /><sodipodi:namedview
     pagecolor="#ffffff"
     bordercolor="#666666"
     borderopacity="1"
     objecttolerance="10"
     gridtolerance="10"
     guidetolerance="10"
     inkscape:pageopacity="0"
     inkscape:pageshadow="2"
     inkscape:window-width="1598"
     inkscape:window-height="875"
     id="namedview3053"
     showgrid="false"
     inkscape:zoom="2.9933131"
     inkscape:cx="-0.93065315"
     inkscape:cy="82.546226"
     inkscape:window-x="0"
     inkscape:window-y="0"
     inkscape:window-maximized="0"
     inkscape:current-layer="g3045" /><g
     id="g3045"
     transform="translate(0,-173)"><path
       style="fill:#000000;fill-opacity:1;stroke:none"
       inkscape:connector-curvature="0"
       d="m 55.001137,196.95815 c -2.437124,-0.42891 -4.973682,-0.71132 -7.033364,-0.78777 l -0.363229,-0.0128 c 0.0832,-0.1911 0.146102,-0.32062 0.166394,-0.33973 0.04464,-0.0382 0.08117,-0.1996 0.08523,-0.35672 0,-0.0871 0.03652,-0.36946 0.09334,-0.74317 0.558044,0.0212 1.298718,0.0382 2.106353,0.0445 3.118949,0.0255 6.381977,0.28877 8.620232,0.70282 1.333211,0.24631 1.773558,0.23781 0.78938,-0.0128 -0.996364,-0.25268 -3.950944,-0.62426 -6.304868,-0.78564 -1.580779,-0.11254 -3.847444,-0.155 -5.182685,-0.13164 0.03856,-0.24206 0.0832,-0.51173 0.12987,-0.78776 0.188717,-1.06804 0.251626,-2.14245 0.255685,-4.28065 0.004,-3.31666 -0.1664,-4.2297 -1.199281,-6.4231 -0.420057,-0.89605 -0.8949,-1.65621 -1.469174,-2.34417 0.501218,-1.54792 0.489048,-3.94517 -0.03045,-6.04728 -0.428169,-1.72414 -0.578333,-1.83456 -2.071859,-1.50332 -1.266245,0.28241 -2.280869,0.66673 -3.581615,1.35256 -0.614864,0.32488 -1.463084,0.83023 -2.077942,1.2273 -1.603105,-0.59029 -3.260996,-0.98098 -5.030502,-1.1912 -1.79385,-0.21233 -6.191224,-0.0934 -7.751712,0.20809 -1.525991,0.29515 -2.899789,0.65611 -4.143714,1.08503 -0.620951,-0.40131 -1.521936,-0.94276 -2.165205,-1.2825 -1.306832,-0.68796 -2.321456,-1.07016 -3.591762,-1.35257 -1.489465,-0.33336 -1.643688,-0.22082 -2.06983,1.50333 -0.527604,2.12971 -0.531663,4.5673 -0.01016,6.11097 0.06088,0.17624 0.0974,0.30152 0.111609,0.39919 -2.114473,2.78582 -2.804414,5.90288 -2.345807,10.25361 0.119725,1.13386 0.304387,2.1743 0.562101,3.12768 -1.349446,-0.008 -3.2691148,0.0425 -4.6550875,0.13589 -2.3579797,0.16349 -5.3125602,0.53083 -6.30891943,0.78351 -0.98215409,0.25055 -0.54586643,0.25904 0.78937623,0.0149 2.2382557,-0.41192 5.5033094,-0.67947 8.6202308,-0.70283 0.5884819,-0.002 1.1384049,-0.0148 1.6112199,-0.0276 0.142046,0.50323 0.304387,0.98312 0.489048,1.43963 l -0.0142,0.002 c -2.0596831,0.0743 -4.59421,0.35672 -7.0313344,0.78563 -1.8283479,0.32063 -4.52724249,0.96187 -4.84177528,1.1466 -0.33076709,0.19323 -0.06087743,0.15076 1.35553488,-0.22507 2.5832276,-0.68371 5.9416277,-1.20818 10.1015788,-1.57339 l 0.464698,-0.0424 c 0.892866,2.17005 2.268692,3.82626 4.212709,5.11724 1.189139,0.79201 3.094599,1.60526 4.054431,1.73265 0.263801,0.034 1.030854,0.19959 1.704564,0.36521 0.67574,0.16563 1.996777,0.41406 2.934287,0.55632 h 0.02234 c -0.01825,0.0128 -0.0345,0.0213 -0.05073,0.034 -1.136376,0.6179 -1.875023,1.57977 -2.372185,3.09371 -0.223218,0.0701 -0.501224,0.16562 -0.801553,0.27391 -1.073469,0.3822 -1.491494,0.46076 -2.579167,0.46926 -1.128263,0.008 -1.396123,-0.0425 -2.069829,-0.37371 -0.980128,-0.47775 -1.893287,-1.35681 -2.502061,-2.40574 -1.016649,-1.75388 -2.773975,-2.99392 -4.239089,-2.99392 -1.252045,0 -1.4894674,0.53084 -0.5844225,1.30586 1.3636505,1.16572 2.3823335,2.35479 2.8003555,3.26357 0.235392,0.5096 0.596599,1.29737 0.805611,1.74964 0.221188,0.482 0.694,1.13598 1.144493,1.58825 1.059267,1.05743 2.082005,1.56278 3.607996,1.8006 1.022741,0.15712 1.274364,0.15712 2.481767,-0.004 0.582391,-0.0743 1.073469,-0.16138 1.513816,-0.26967 0,0.5181 0,1.11476 0,1.81546 0,3.74982 -0.04261,4.95587 -0.184662,5.30835 -0.267861,0.67098 -0.868515,1.36106 -1.452938,1.67106 -0.582394,0.31002 -0.762998,0.65187 -0.517458,0.96613 0.135959,0.16987 0.397732,0.19959 1.276393,0.14014 1.668039,-0.10829 2.847031,-0.75378 3.447686,-1.8919 0.192778,-0.36522 0.237422,-1.09989 0.2983,-4.9219 0.06494,-4.14688 0.09335,-4.54607 0.351059,-5.13849 0.156252,-0.35247 0.381499,-0.73467 0.507312,-0.83871 0.211041,-0.18261 0.225247,0.17836 0.225247,5.13848 -0.0022,5.47397 -0.05479,6.13433 -0.578336,7.1875 -0.117696,0.23994 -0.340913,0.55208 -0.497166,0.70071 -0.273949,0.26116 -0.389612,0.93002 -0.198866,1.13174 0.314533,0.32699 1.891256,-0.18686 2.751657,-0.89605 1.465112,-1.21455 1.63963,-2.21889 1.651807,-9.47222 l 0.0061,-4.25517 0.444405,0.0446 0.444404,0.0425 0.07305,5.56527 c 0.0832,6.26598 0.09538,6.35728 1.114058,7.56758 0.578333,0.68372 1.160725,1.06167 2.108386,1.35682 1.268277,0.39918 1.649776,-0.21659 0.79749,-1.28462 -0.927362,-1.16147 -0.972005,-1.60525 -0.921272,-8.48062 0.0345,-4.40806 0.0345,-4.40806 0.306412,-4.15113 0.572249,0.54357 0.681829,1.43538 0.681829,5.56951 0,5.13425 0.140018,5.62261 1.872992,6.51866 0.809668,0.41405 1.036944,0.46501 2.073887,0.46926 1.103905,0.004 1.170873,-0.0128 1.211457,-0.31426 0.0345,-0.24417 -0.101465,-0.4098 -0.616891,-0.73892 -0.675737,-0.43528 -1.144493,-0.99159 -1.438734,-1.6923 -0.111608,-0.26967 -0.186688,-2.03628 -0.237421,-5.67357 -0.07305,-5.08114 -0.08929,-5.31259 -0.391642,-6.10884 -0.40788,-1.07016 -1.030856,-1.91526 -1.820232,-2.47581 -0.204955,-0.14015 -0.409908,-0.25693 -0.675739,-0.34399 0.326707,-0.034 0.643271,-0.0701 0.949689,-0.11678 3.189972,-0.44378 4.876269,-0.81324 6.229775,-1.36106 2.863263,-1.15297 4.799164,-3.06823 5.848282,-5.78398 0.09335,-0.24206 0.186692,-0.47138 0.265832,-0.65611 l 0.807639,0.0701 c 4.161978,0.36734 7.520381,0.8918 10.103608,1.57764 1.416411,0.37583 1.686294,0.42042 1.355531,0.22295 -0.308443,-0.18048 -3.007345,-0.81961 -4.833657,-1.14023 z m -12.203875,-0.0658 c -0.472812,1.08715 -1.791825,2.48431 -2.857172,3.03213 -1.051153,0.54358 -2.698899,0.95763 -4.565804,1.1551 -1.276392,0.1359 -8.394984,0.17623 -9.569915,0.0552 -3.890061,-0.39918 -6.06947,-1.18269 -7.676632,-2.75184 -1.521932,-1.49059 -2.232169,-3.51414 -2.108385,-6.00481 0.07914,-1.55853 0.438318,-2.53739 1.377859,-3.72646 0.854311,-1.0829 1.753267,-1.75176 2.812531,-2.09149 0.886782,-0.28452 3.607997,-0.31 7.266724,-0.0637 1.617309,0.10829 2.95458,0.10829 4.569859,0 3.827156,-0.25267 6.381971,-0.22507 7.32557,0.0807 1.483376,0.47987 2.834855,1.77087 3.64655,3.49077 0.365269,0.76865 0.436291,1.09564 0.489052,2.28259 0.07305,1.63497 -0.196839,3.37186 -0.710237,4.54182 z M 23.49915,189.8726 c -2.177381,-0.39919 -3.421306,3.50138 -1.751238,5.49307 0.793434,0.94489 1.497582,1.09989 2.378274,0.52659 0.815755,-0.53296 1.258131,-1.5288 1.258131,-2.8198 0,-1.72202 -0.748789,-2.98754 -1.885167,-3.19986 z m 13.216466,0.23356 c -2.177379,-0.39918 -3.423334,3.49714 -1.753263,5.49096 0.79546,0.94488 1.497581,1.10201 2.380301,0.52446 0.813726,-0.53083 1.258132,-1.52881 1.258132,-2.81979 0,-1.71566 -0.74879,-2.98542 -1.88517,-3.19563 z m -5.856399,7.6695 c -0.04667,0.15713 -0.273946,0.39069 -0.503249,0.51597 -0.580365,0.31214 -0.998388,0.20385 -1.611224,-0.38007 -0.379467,-0.35885 -0.551951,-0.54782 -0.667617,-0.17199 -0.107552,0.34823 0.568186,1.04681 1.089702,1.26126 0.478905,0.19959 0.821848,0.20596 1.341331,-0.0211 0.515429,-0.22508 0.965921,-0.83023 0.965921,-1.22304 0,-0.36522 -0.501225,-0.34823 -0.614864,0.0191 z m -0.643268,-1.22091 c 0.330763,-0.30577 0.405847,-0.93427 0.08929,-1.26764 -0.316558,-0.33337 -0.959835,-0.2824 -1.211458,0.0913 -0.292213,0.43741 -0.135959,0.77076 0.07305,1.12536 0.324679,0.26329 0.760972,0.31638 1.04912,0.051 z"
       id="path5256"
       inkscape:export-xdpi="90"
       inkscape:export-ydpi="90" /></g></svg>