<?xml version="1.0" encoding="UTF-8" standalone="no"?>
<!-- Generator: Adobe Illustrator 15.1.0, SVG Export Plug-In . SVG Version: 6.00 Build 0)  -->

<svg
   xmlns:dc="http://purl.org/dc/elements/1.1/"
   xmlns:cc="http://creativecommons.org/ns#"
   xmlns:rdf="http://www.w3.org/1999/02/22-rdf-syntax-ns#"
   xmlns:svg="http://www.w3.org/2000/svg"
   xmlns="http://www.w3.org/2000/svg"
   xmlns:sodipodi="http://sodipodi.sourceforge.net/DTD/sodipodi-0.dtd"
   xmlns:inkscape="http://www.inkscape.org/namespaces/inkscape"
   version="1.1"
   id="Layer_1"
   x="0px"
   y="0px"
   width="150"
   height="50"
   viewBox="0 0 150 50"
   enable-background="new 0 0 1024 600"
   xml:space="preserve"
   inkscape:version="0.48.4 r9939"
   sodipodi:docname="web.svg"
   inkscape:export-filename="/home/huntingbears/desarrollo/canaimagnulinux.github.com/tribus/img/web.png"
   inkscape:export-xdpi="90"
   inkscape:export-ydpi="90"><metadata
     id="metadata81"><rdf:RDF><cc:Work
         rdf:about=""><dc:format>image/svg+xml</dc:format><dc:type
           rdf:resource="http://purl.org/dc/dcmitype/StillImage" /><dc:title /></cc:Work></rdf:RDF></metadata><defs
     id="defs79" /><sodipodi:namedview
     pagecolor="#ffffff"
     bordercolor="#666666"
     borderopacity="1"
     objecttolerance="10"
     gridtolerance="10"
     guidetolerance="10"
     inkscape:pageopacity="0"
     inkscape:pageshadow="2"
     inkscape:window-width="1598"
     inkscape:window-height="875"
     id="namedview77"
     showgrid="false"
     inkscape:zoom="1.5733333"
     inkscape:cx="116.41606"
     inkscape:cy="162.66935"
     inkscape:window-x="0"
     inkscape:window-y="0"
     inkscape:window-maximized="1"
     inkscape:current-layer="Layer_1" /><g
     id="g3202"
     transform="matrix(0.4998421,0,0,0.5,-12.995894,45.012499)"><g
       id="g3194"><polygon
         style="fill:#e45126"
         id="polygon5"
         points="53.07,531.97 26,228.35 323.45,228.35 296.352,531.921 174.543,565.69 "
         transform="matrix(0.29639379,0,0,0.29639379,18.293761,-157.70652)" /><polygon
         style="fill:#f1682b"
         id="polygon7"
         points="296.31,253.175 174.725,253.175 174.725,539.878 273.152,512.591 "
         transform="matrix(0.29639379,0,0,0.29639379,18.293761,-157.70652)" /><polygon
         style="fill:#ebebeb"
         id="polygon9"
         points="174.725,365.784 125.45,365.784 122.046,327.652 174.725,327.652 174.725,290.413 174.596,290.413 81.35,290.413 82.242,300.404 91.394,403.02 174.725,403.02 "
         transform="matrix(0.29639379,0,0,0.29639379,18.293761,-157.70652)" /><polygon
         style="fill:#ebebeb"
         id="polygon11"
         points="130.438,421.641 110.287,421.641 93.058,421.641 98.275,480.108 174.553,501.284 174.725,501.235 174.725,462.491 174.562,462.538 133.09,451.338 "
         transform="matrix(0.29639379,0,0,0.29639379,18.293761,-157.70652)" /><polygon
         style="fill:#ffffff"
         id="polygon23"
         points="260.246,375.783 261.154,365.784 251.12,365.784 174.596,365.784 174.596,403.02 220.45,403.02 216.128,451.312 174.596,462.524 174.596,501.267 250.936,480.108 251.495,473.817 "
         transform="matrix(0.29639379,0,0,0.29639379,18.293761,-157.70652)" /><polygon
         style="fill:#ffffff"
         id="polygon25"
         points="174.596,290.413 174.596,313.541 174.596,327.56 174.596,327.652 264.423,327.652 264.423,327.652 264.543,327.652 265.29,319.282 266.986,300.404 267.877,290.413 "
         transform="matrix(0.29639379,0,0,0.29639379,18.293761,-157.70652)" /></g><g
       transform="translate(12.000003,0)"
       id="g3184"><polygon
         style="fill:#1673b6"
         id="polygon37"
         points="998,228.374 970.903,531.945 849.093,565.715 727.62,531.994 700.55,228.374 "
         transform="matrix(0.29639379,0,0,0.29639379,18.293761,-157.71023)" /><polygon
         style="fill:#35a9db"
         id="polygon39"
         points="849.276,253.2 849.276,539.904 947.703,512.615 970.86,253.2 "
         transform="matrix(0.29639379,0,0,0.29639379,18.293761,-157.71023)" /><g
         id="g41"
         transform="matrix(0.29639379,0,0,0.29639379,18.293761,-157.71023)"><polygon
           style="fill:#ffffff"
           id="polygon43"
           points="941.758,297.82 932.605,400.436 849.275,400.436 849.275,363.2 898.551,363.2 901.953,325.068 849.275,325.068 849.275,287.829 849.404,287.829 942.65,287.829 " /><polygon
           style="fill:#ebebeb"
           id="polygon45"
           points="807.863,448.754 805.212,419.057 785.061,419.057 767.832,419.057 773.049,477.525 849.326,498.701 849.498,498.652 849.498,459.907 849.336,459.954 " /><polygon
           style="fill:#ffffff"
           id="polygon47"
           points="926.269,471.234 932.746,398.859 895.386,398.859 890.901,448.729 849.369,459.94 849.369,498.682 925.709,477.525 " /><polygon
           style="fill:#ebebeb"
           id="polygon49"
           points="758.711,316.698 757.014,297.82 756.123,287.829 849.404,287.829 849.404,310.957 849.404,324.976 849.404,325.068 759.576,325.068 759.576,325.068 759.457,325.068 " /><polygon
           style="fill:#ebebeb"
           id="polygon51"
           points="807.582,392.073 805.885,373.195 804.994,363.204 849.275,363.204 849.275,386.333 849.275,400.35 849.275,400.441 808.447,400.441 808.447,400.441 808.328,400.441 " /></g></g><g
       transform="translate(6.000002,0)"
       id="g3174"><polygon
         style="fill:#e4a227"
         id="polygon55"
         points="660.725,105.132 633.627,408.705 511.818,442.475 390.345,408.754 363.275,105.132 "
         transform="matrix(0.29639379,0,0,0.29639379,18.293761,-121.17184)" /><polygon
         style="fill:#f0bf26"
         id="polygon57"
         points="610.178,389 633.336,129.583 511.75,129.583 511.75,416.287 "
         transform="matrix(0.29639379,0,0,0.29639379,18.293761,-121.17184)" /><polygon
         style="fill:#ebebeb"
         id="polygon65"
         points="511.531,338.973 470.059,327.773 467.406,298.075 447.256,298.075 430.027,298.075 435.244,356.543 511.521,377.719 511.693,377.67 511.693,338.926 "
         transform="matrix(0.29639379,0,0,0.29639379,18.293761,-121.17184)" /><polygon
         style="fill:#ebebeb"
         id="polygon67"
         points="516.812,182.677 516.709,143.954 442.565,143.954 439.811,171.403 431.059,269.438 430.151,279.437 440.186,279.437 516.709,279.437 516.709,242.2 470.855,242.2 476.232,183.758 "
         transform="matrix(0.29639379,0,0,0.29639379,18.293761,-121.17184)" /><polygon
         style="fill:#ffffff"
         id="polygon69"
         points="516.62,182.683 557.291,185.132 560.742,223.579 580.893,223.579 598.123,223.579 591.609,151.633 516.629,143.937 516.457,143.985 516.457,182.729 "
         transform="matrix(0.29639379,0,0,0.29639379,18.293761,-121.17184)" /><polyline
         style="fill:#ffffff"
         id="polyline71"
         points="594.284,182.843 591.093,143.954 512.49,143.954 512.49,168.106 512.49,182.746 512.49,182.843    594.284,182.843  "
         transform="matrix(0.29639379,0,0,0.29639379,18.293761,-121.17184)" /><polygon
         style="fill:#ffffff"
         id="polygon73"
         points="511.564,338.959 511.564,377.701 587.904,356.543 588.463,350.252 597.215,252.217 598.123,242.218 588.088,242.218 511.564,242.218 511.564,279.454 557.418,279.454 553.096,327.748 "
         transform="matrix(0.29639379,0,0,0.29639379,18.293761,-121.17184)" /><path
         style="fill:#ffffff"
         inkscape:connector-curvature="0"
         id="path75"
         d="M 193.0179,-67.467364" /></g></g></svg>