<svg xmlns="http://www.w3.org/2000/svg" width="833" height="400" viewBox="25 0 833 400" enable-background="new 25 0 833 400"><rect x="-4.465" fill="#D94E3F" width="891.93" height="400"/><path fill="#B63B2D" d="M617.125 313.678c.004 26.321-.299 52.651.125 78.968.238 14.724-5.803 24.908-18.416 32.2-44.807 25.907-89.457 52.083-134.162 78.169-14.566 8.495-28.87 8.84-43.773.154-45.421-26.476-90.983-52.716-136.678-78.714-12.877-7.323-18.462-18.153-18.48-32.368-.068-52.646-.009-105.294-.059-157.945-.016-15.287 6.339-26.263 19.92-33.976 45.042-25.585 89.887-51.525 134.606-77.669 13.985-8.177 27.297-9.013 41.493-.754 45.445 26.449 90.936 52.824 136.652 78.801 13.684 7.772 19.328 18.57 18.947 34.166-.648 26.307-.177 52.642-.175 78.968z"/><path fill="#FFFBF5" d="M472.911 316.333c-5.167 6.166-6.833 10.909-8.073 15.094-4.372 14.773-1.844 28.366 10.479 37.597 13.096 9.811 11.521 18.188 7.262 30.977h-82.583l-5.646-23.759-4.166-.377c-2.064 7.364-4.31 15.649-6.688 24.136-9.061 0-17.603.005-26.625 0-7.928-40.84 33.727-86.663 73.576-81.125 11.704 1.625 28.547-.544 42.464-2.543z"/><path fill="#FFFBF5" d="M441.399 312.546c-24.122.187-44.411-19.756-44.641-43.874-.222-23.614 20.945-44.629 44.507-44.193 22.612.423 42.834 20.357 43.655 43.03.851 23.545-19.738 44.855-43.521 45.037z"/><path fill="#FFFBF5" d="M527.104 342.966c-.319 16.059-14.464 29.619-29.971 28.729-15.462-.886-28.602-15.741-27.786-31.409.759-14.532 14.604-27.594 29.226-27.566 15.663.026 28.854 14.009 28.531 30.246z"/><path fill="#B63B2D" d="M483.266 343.846c-.776-.581-1.467-1.272-2.049-2.049l-.002-.002.002.002c-1.261-1.688-2.007-3.778-2.007-6.044 0-5.577 4.521-10.099 10.099-10.099 3.851 0 7.197 2.154 8.901 5.323 1.704-3.169 5.051-5.323 8.901-5.323 5.577 0 10.099 4.521 10.099 10.099 0 3.27-1.554 6.177-3.964 8.022l-15.024 15.025-14.956-14.954z"/><path fill="#FFFBF5" d="M524.745 400c-8.936.445-34.167 0-34.167 0s6.006-18.761 10.121-21.369c4.74-3.003 10.546-.964 19.213-9.464 1.322 8.432 3.35 21.397 4.833 30.833z"/><path fill="#E64C3C" d="M785.87 346.319c.003 16.291-.185 32.586.078 48.873.147 9.112-3.592 15.416-11.397 19.929-27.731 16.034-55.365 32.234-83.033 48.379-9.015 5.258-17.867 5.471-27.091.096-28.11-16.386-56.309-32.626-84.59-48.716-7.97-4.532-11.426-11.235-11.438-20.033-.042-32.582-.005-65.166-.036-97.752-.01-9.461 3.924-16.254 12.328-21.027 27.877-15.835 55.631-31.889 83.309-48.069 8.654-5.061 16.894-5.578 25.68-.467 28.125 16.369 56.279 32.693 84.573 48.77 8.469 4.811 11.962 11.493 11.727 21.146-.402 16.28-.111 32.578-.11 48.871z"/><path fill="#FFFBF5" d="M696.617 347.963c-3.198 3.816-4.229 6.752-4.997 9.342-2.705 9.144-1.141 17.556 6.485 23.269 8.105 6.071 7.13 11.256 4.494 19.171h-51.11l-3.494-14.704-2.578-.233c-1.277 4.558-2.668 9.686-4.14 14.938-5.607 0-10.895.003-16.479 0-4.906-25.275 20.873-53.636 45.536-50.208 7.246 1.005 17.67-.338 26.283-1.575z"/><path fill="#FFFBF5" d="M677.114 345.619c-14.929.115-27.485-12.227-27.628-27.153-.137-14.615 12.963-27.621 27.545-27.352 13.994.262 26.51 12.6 27.018 26.632.527 14.571-12.216 27.761-26.935 27.873z"/><path fill="#FFFBF5" d="M730.156 364.446c-.197 9.938-8.951 18.331-18.549 17.78-9.569-.549-17.701-9.742-17.196-19.439.47-8.994 9.038-17.078 18.088-17.061 9.694.017 17.857 8.671 17.657 18.72z"/><path fill="#D94E3F" d="M703.025 364.99c-.48-.359-.908-.787-1.268-1.268l-.002-.001.002.001c-.781-1.044-1.242-2.339-1.242-3.74 0-3.452 2.798-6.25 6.25-6.25 2.383 0 4.454 1.333 5.509 3.294 1.055-1.961 3.126-3.294 5.509-3.294 3.452 0 6.25 2.798 6.25 6.25 0 2.023-.961 3.822-2.453 4.965l-9.299 9.299-9.256-9.256z"/><path fill="#FFFBF5" d="M728.697 399.744c-5.53.275-21.146 0-21.146 0s3.717-11.61 6.264-13.225c2.935-1.859 6.527-.597 11.892-5.857.817 5.218 2.072 13.242 2.99 19.082z"/><path fill="#FFD259" d="M301.87 346.319c.003 16.291-.185 32.586.078 48.873.147 9.112-3.592 15.416-11.397 19.929-27.731 16.034-55.365 32.234-83.033 48.379-9.015 5.258-17.867 5.471-27.091.096-28.11-16.386-56.309-32.626-84.59-48.716-7.97-4.532-11.426-11.235-11.438-20.033-.042-32.582-.005-65.166-.036-97.752-.01-9.461 3.924-16.254 12.328-21.027 27.877-15.835 55.631-31.889 83.309-48.069 8.654-5.061 16.894-5.578 25.68-.467 28.125 16.369 56.279 32.693 84.573 48.77 8.469 4.811 11.962 11.493 11.727 21.146-.402 16.28-.111 32.578-.11 48.871z"/><path fill="#FFFBF5" d="M212.617 347.963c-3.198 3.816-4.229 6.752-4.997 9.342-2.705 9.144-1.141 17.556 6.485 23.269 8.105 6.071 7.13 11.256 4.494 19.171h-51.11l-3.494-14.704-2.578-.233c-1.277 4.558-2.668 9.686-4.14 14.938-5.607 0-10.895.003-16.479 0-4.906-25.275 20.873-53.636 45.536-50.208 7.246 1.005 17.67-.338 26.283-1.575z"/><path fill="#FFFBF5" d="M193.114 345.619c-14.929.115-27.485-12.227-27.628-27.153-.137-14.615 12.963-27.621 27.545-27.352 13.994.262 26.51 12.6 27.018 26.632.527 14.571-12.216 27.761-26.935 27.873z"/><path fill="#FFFBF5" d="M246.156 364.446c-.197 9.938-8.951 18.331-18.549 17.78-9.569-.549-17.701-9.742-17.196-19.439.47-8.994 9.038-17.078 18.088-17.061 9.694.017 17.857 8.671 17.657 18.72z"/><path fill="#FFD259" d="M219.025 364.99c-.48-.359-.908-.787-1.268-1.268l-.002-.001.002.001c-.781-1.044-1.242-2.339-1.242-3.74 0-3.452 2.798-6.25 6.25-6.25 2.383 0 4.454 1.333 5.509 3.294 1.055-1.961 3.126-3.294 5.509-3.294 3.452 0 6.25 2.798 6.25 6.25 0 2.023-.961 3.822-2.453 4.965l-9.299 9.299-9.256-9.256z"/><path fill="#FFFBF5" d="M244.697 399.744c-5.53.275-21.146 0-21.146 0s3.717-11.61 6.264-13.225c2.935-1.859 6.527-.597 11.892-5.857.817 5.218 2.072 13.242 2.99 19.082z"/></svg>