<?xml version="1.0" encoding="UTF-8" standalone="no"?>
<!-- Generator: Adobe Illustrator 16.0.0, SVG Export Plug-In . SVG Version: 6.00 Build 0)  -->

<svg
   xmlns:dc="http://purl.org/dc/elements/1.1/"
   xmlns:cc="http://creativecommons.org/ns#"
   xmlns:rdf="http://www.w3.org/1999/02/22-rdf-syntax-ns#"
   xmlns:svg="http://www.w3.org/2000/svg"
   xmlns="http://www.w3.org/2000/svg"
   xmlns:sodipodi="http://sodipodi.sourceforge.net/DTD/sodipodi-0.dtd"
   xmlns:inkscape="http://www.inkscape.org/namespaces/inkscape"
   version="1.1"
   id="Layer_1"
   x="0px"
   y="0px"
   width="512"
   height="512"
   viewBox="0 0 512 511.99998"
   enable-background="new 0 0 200.365 200.363"
   xml:space="preserve"
   sodipodi:docname="logomin.svg"
   inkscape:version="0.92.3 (2405546, 2018-03-11)"
   inkscape:export-filename="/home/huntingbears/Escritorio/logomin.svg.png"
   inkscape:export-xdpi="187.5"
   inkscape:export-ydpi="187.5"><metadata
   id="metadata25"><rdf:RDF><cc:Work
       rdf:about=""><dc:format>image/svg+xml</dc:format><dc:type
         rdf:resource="http://purl.org/dc/dcmitype/StillImage" /><dc:title /></cc:Work></rdf:RDF></metadata><defs
   id="defs23" /><sodipodi:namedview
   pagecolor="#ffffff"
   bordercolor="#666666"
   borderopacity="1"
   objecttolerance="10"
   gridtolerance="10"
   guidetolerance="10"
   inkscape:pageopacity="0"
   inkscape:pageshadow="2"
   inkscape:window-width="1600"
   inkscape:window-height="835"
   id="namedview21"
   showgrid="false"
   inkscape:zoom="0.8328743"
   inkscape:cx="331.81872"
   inkscape:cy="207.38561"
   inkscape:window-x="0"
   inkscape:window-y="40"
   inkscape:window-maximized="1"
   inkscape:current-layer="Layer_1" />


<g
   id="g927"
   transform="matrix(1.1831658,0,0,1.1831658,-46.890444,-46.890445)"><path
     inkscape:connector-curvature="0"
     id="path822"
     d="M 346.58937,92.71373 A 210.44951,207.69833 0 0 0 92.784381,246.11988 210.44951,207.69833 0 0 0 116.54582,400.82567 210.44951,207.69833 0 0 0 165.40986,419.28627 210.44951,207.69833 0 0 0 419.21485,265.88012 210.44951,207.69833 0 0 0 395.45417,111.17116 210.44951,207.69833 0 0 0 346.58937,92.71373 Z"
     style="opacity:1;fill:#dde0dd;fill-opacity:1;stroke-width:7.77532578;stroke-miterlimit:4;stroke-dasharray:none" /><path
     id="path822-6"
     d="m 315.50699,321.6354 c -6.2834,0.23027 -19.00548,5.44659 -42.17383,19.24805 -108.56362,67.87437 -107.79951,22.1786 -139.24219,3.11523 -11.10418,-6.73182 -27.07378,-2.61869 -39.857418,4.92773 a 210.44951,207.69833 0 0 0 22.263668,51.89844 210.44951,207.69833 0 0 0 48.86524,18.46094 210.44951,207.69833 0 0 0 178.53906,-38.14453 c -30.80791,9.89498 -49.46325,-8.55035 -36.34375,-29.07617 6.68939,-10.46444 20.81522,-30.90121 7.94922,-30.42969 z"
     style="opacity:1;fill:#c6cdc6;fill-opacity:1;stroke-width:7.77532578;stroke-miterlimit:4;stroke-dasharray:none"
     inkscape:connector-curvature="0" /><path
     id="path822-6-7"
     d="m 417.86832,163.94009 c -24.84249,4.23845 -71.24782,18.2996 -90.57618,30.71875 -44.61271,28.66924 -52.03257,15.4767 -50.18554,-4.04297 3.69811,-39.08167 -35.04406,-15.80183 -92.00586,31.35547 -39.45235,40.39173 -64.2964,18.02357 -86.919922,6.13476 a 210.44951,207.69833 0 0 0 -5.44336,18.01172 210.44951,207.69833 0 0 0 -1.794922,87.9082 c 19.735564,-2.16316 38.979844,-10.93066 57.066404,1.46289 18.17344,12.93121 46.93167,30.90346 81.63477,6.46094 88.04848,-62.02143 143.00934,-60.22652 121.71679,-14.09179 -34.21719,46.73968 -24.90976,48.64968 5.48828,33.28906 8.51114,-6.17855 18.32743,-13.81441 28.20118,-22.33203 a 210.44951,207.69833 0 0 0 34.11718,-72.93555 210.44951,207.69833 0 0 0 -1.29882,-101.93945 z"
     style="opacity:1;fill:#a6afa7;fill-opacity:1;stroke-width:7.77532578;stroke-miterlimit:4;stroke-dasharray:none"
     inkscape:connector-curvature="0" /><path
     id="path822-6-5"
     d="m 404.47183,128.29946 c -22.94905,4.01066 -52.71309,13.39188 -59.63281,17.84961 -44.61271,28.66926 -44.64342,13.46866 -40.94531,-5.81641 3.69811,-19.28504 -42.35462,-14.08115 -99.31641,33.07618 -1.51933,1.25868 -3.02944,2.4578 -4.5332,3.62304 -0.002,0.004 -0.005,0.005 -0.008,0.008 -20.85229,18.6803 -78.37102,41.66738 -69.41015,7.69921 4.26174,-12.51526 10.02992,-19.2607 -0.77149,-15.39843 a 210.44951,207.69833 0 0 0 -27.21484,46.95508 c 22.29154,4.99435 51.57123,4.8931 68.02344,-2.66407 48.48201,-22.26593 116.92135,-91.97501 116.30078,-63.38086 -0.61861,28.59414 15.87721,32.57936 38.42578,17.86914 18.63891,-12.15916 55.03728,-24.35283 84.4707,-27.7207 a 210.44951,207.69833 0 0 0 -5.38867,-12.09961 z"
     style="opacity:1;fill:#7c8b7f;fill-opacity:1;stroke-width:7.77532578;stroke-miterlimit:4;stroke-dasharray:none"
     inkscape:connector-curvature="0" /><path
     id="path822-6-3"
     d="M 304.90933,87.09438 A 210.44951,207.69833 0 0 0 148.64371,147.9479 c 24.22906,-9.69291 41.53514,-14.10455 29.66992,-3.92774 -28.1959,24.18785 -33.94651,51.95444 11.19922,17.45899 63.5818,-48.58639 138.53148,-59.91806 130.76953,-39.27539 -7.07369,18.81559 27.13694,-2.50527 66.68359,-14.95703 A 210.44951,207.69833 0 0 0 346.54214,92.711568 210.44951,207.69833 0 0 0 304.90933,87.09438 Z"
     style="opacity:1;fill:#c3c9c4;fill-opacity:1;stroke-width:7.77532578;stroke-miterlimit:4;stroke-dasharray:none"
     inkscape:connector-curvature="0" /></g><text
   xml:space="preserve"
   style="font-style:normal;font-weight:normal;font-size:68.20574188px;line-height:1.25;font-family:sans-serif;letter-spacing:0px;word-spacing:0px;fill:#868686;fill-opacity:1;stroke:none;stroke-width:1.70514357"
   x="378.20737"
   y="197.39059"
   id="text3780"><tspan
     sodipodi:role="line"
     id="tspan3778"
     x="378.20737"
     y="257.73669"
     style="font-style:normal;font-variant:normal;font-weight:normal;font-stretch:normal;font-size:127.31738281px;font-family:'Julius Sans One';-inkscape-font-specification:'Julius Sans One';fill:#868686;fill-opacity:1;stroke-width:1.70514357" /></text>






</svg>