<?xml version="1.0" standalone="no"?>
<!DOCTYPE svg PUBLIC "-//W3C//DTD SVG 20010904//EN"
 "http://www.w3.org/TR/2001/REC-SVG-20010904/DTD/svg10.dtd">
<svg version="1.0" xmlns="http://www.w3.org/2000/svg"
 width="1000.000000pt" height="1000.000000pt" viewBox="0 0 1000.000000 1000.000000"
 preserveAspectRatio="xMidYMid meet">
<metadata>
Created by potrace 1.11, written by Peter Selinger 2001-2013
</metadata>
<g transform="translate(0.000000,1000.000000) scale(0.100000,-0.100000)"
fill="#000000" stroke="none">
<path d="M5758 8905 c-1 -1 -57 -6 -124 -9 -67 -4 -130 -8 -140 -10 -10 -2
-53 -7 -94 -11 -41 -4 -82 -9 -91 -10 -9 -2 -40 -6 -70 -10 -92 -11 -398 -74
-538 -111 -690 -182 -1347 -522 -1887 -975 -173 -144 -403 -369 -525 -511 -34
-40 -65 -75 -68 -78 -33 -28 -243 -309 -336 -450 -331 -501 -568 -1069 -694
-1660 -18 -82 -26 -134 -56 -330 -37 -253 -51 -641 -32 -940 15 -234 59 -532
113 -760 14 -58 27 -113 29 -122 61 -290 252 -767 447 -1120 l82 -146 157 -76
c424 -204 832 -335 1299 -416 52 -9 76 -13 160 -25 60 -8 214 -23 365 -34 107
-8 554 -6 625 3 19 2 73 7 120 10 47 4 96 8 110 11 14 2 48 6 75 10 133 16
368 60 511 96 87 21 168 41 178 44 76 18 339 108 476 162 1431 566 2510 1774
2900 3246 54 205 111 510 125 667 3 36 8 74 10 85 9 45 19 281 20 445 0 160
-12 457 -20 470 -1 3 -6 39 -9 80 -13 143 -76 481 -125 670 -101 387 -318 906
-498 1192 -12 21 -23 41 -23 46 0 12 -279 144 -457 216 -364 147 -758 255
-1093 300 -154 21 -194 26 -260 31 -41 4 -91 9 -110 11 -40 6 -546 14 -552 9z"/>
</g>
</svg>
